<svg width="250" height="100" viewBox="0 0 250 100" fill="none" xmlns="http://www.w3.org/2000/svg">
<g clip-path="url(#clip0_16_15)">
<path d="M74.376 58C74.2 58 74.056 57.944 73.944 57.832C73.832 57.72 73.776 57.576 73.776 57.4V41.8C73.776 41.624 73.832 41.48 73.944 41.368C74.056 41.256 74.2 41.2 74.376 41.2H80.736C82.736 41.2 84.312 41.664 85.464 42.592C86.616 43.504 87.192 44.824 87.192 46.552C87.192 47.72 86.912 48.696 86.352 49.48C85.792 50.264 85.04 50.848 84.096 51.232L87.48 57.232C87.528 57.328 87.552 57.416 87.552 57.496C87.552 57.624 87.504 57.744 87.408 57.856C87.312 57.952 87.192 58 87.048 58H84.384C84.096 58 83.88 57.928 83.736 57.784C83.592 57.624 83.488 57.48 83.424 57.352L80.496 51.856H77.592V57.4C77.592 57.576 77.536 57.72 77.424 57.832C77.312 57.944 77.168 58 76.992 58H74.376ZM77.592 48.808H80.664C81.544 48.808 82.192 48.608 82.608 48.208C83.04 47.808 83.256 47.248 83.256 46.528C83.256 45.808 83.048 45.24 82.632 44.824C82.216 44.408 81.56 44.2 80.664 44.2H77.592V48.808ZM95.2753 58.24C93.4353 58.24 91.9713 57.728 90.8833 56.704C89.8113 55.68 89.2433 54.192 89.1793 52.24C89.1793 52.112 89.1793 51.944 89.1793 51.736C89.1793 51.512 89.1793 51.336 89.1793 51.208C89.2433 49.976 89.5233 48.92 90.0193 48.04C90.5153 47.144 91.2113 46.464 92.1073 46C93.0033 45.52 94.0513 45.28 95.2513 45.28C96.5953 45.28 97.7153 45.56 98.6113 46.12C99.5233 46.664 100.203 47.416 100.651 48.376C101.115 49.32 101.347 50.408 101.347 51.64V52.192C101.347 52.352 101.283 52.488 101.155 52.6C101.043 52.712 100.907 52.768 100.747 52.768H92.8993C92.8993 52.784 92.8993 52.816 92.8993 52.864C92.8993 52.896 92.8993 52.928 92.8993 52.96C92.9153 53.472 93.0113 53.944 93.1873 54.376C93.3793 54.792 93.6433 55.128 93.9793 55.384C94.3313 55.64 94.7473 55.768 95.2273 55.768C95.6273 55.768 95.9553 55.712 96.2113 55.6C96.4673 55.488 96.6753 55.352 96.8353 55.192C97.0113 55.032 97.1393 54.896 97.2193 54.784C97.3633 54.624 97.4753 54.528 97.5553 54.496C97.6513 54.448 97.7953 54.424 97.9873 54.424H100.483C100.643 54.424 100.771 54.472 100.867 54.568C100.979 54.648 101.027 54.768 101.011 54.928C100.995 55.184 100.859 55.504 100.603 55.888C100.363 56.256 100.003 56.624 99.5233 56.992C99.0433 57.344 98.4433 57.64 97.7233 57.88C97.0193 58.12 96.2033 58.24 95.2753 58.24ZM92.8993 50.584H97.6033V50.536C97.6033 49.96 97.5073 49.464 97.3153 49.048C97.1393 48.616 96.8753 48.28 96.5233 48.04C96.1713 47.8 95.7473 47.68 95.2513 47.68C94.7553 47.68 94.3313 47.8 93.9793 48.04C93.6273 48.28 93.3553 48.616 93.1633 49.048C92.9873 49.464 92.8993 49.96 92.8993 50.536V50.584ZM108.666 58.24C107.674 58.24 106.818 58.128 106.098 57.904C105.394 57.664 104.818 57.376 104.37 57.04C103.938 56.704 103.61 56.368 103.386 56.032C103.178 55.68 103.066 55.384 103.05 55.144C103.034 54.968 103.09 54.824 103.218 54.712C103.346 54.6 103.474 54.544 103.602 54.544H105.93C105.978 54.544 106.026 54.552 106.074 54.568C106.122 54.584 106.17 54.624 106.218 54.688C106.426 54.832 106.642 55 106.866 55.192C107.09 55.368 107.346 55.52 107.634 55.648C107.938 55.776 108.314 55.84 108.762 55.84C109.29 55.84 109.738 55.736 110.106 55.528C110.474 55.304 110.658 54.992 110.658 54.592C110.658 54.304 110.57 54.064 110.394 53.872C110.234 53.68 109.922 53.504 109.458 53.344C108.994 53.184 108.306 53.008 107.394 52.816C106.53 52.624 105.794 52.368 105.186 52.048C104.578 51.728 104.122 51.328 103.818 50.848C103.514 50.352 103.362 49.76 103.362 49.072C103.362 48.448 103.554 47.848 103.938 47.272C104.338 46.696 104.922 46.224 105.69 45.856C106.458 45.472 107.418 45.28 108.57 45.28C109.45 45.28 110.218 45.392 110.874 45.616C111.546 45.824 112.106 46.096 112.554 46.432C113.002 46.752 113.338 47.088 113.562 47.44C113.802 47.776 113.93 48.072 113.946 48.328C113.962 48.488 113.914 48.624 113.802 48.736C113.69 48.848 113.562 48.904 113.418 48.904H111.282C111.202 48.904 111.13 48.896 111.066 48.88C111.002 48.848 110.946 48.808 110.898 48.76C110.706 48.632 110.506 48.488 110.298 48.328C110.106 48.152 109.874 48 109.602 47.872C109.33 47.744 108.978 47.68 108.546 47.68C108.018 47.68 107.61 47.8 107.322 48.04C107.05 48.264 106.914 48.552 106.914 48.904C106.914 49.128 106.986 49.336 107.13 49.528C107.274 49.72 107.57 49.896 108.018 50.056C108.466 50.216 109.146 50.384 110.058 50.56C111.146 50.752 112.01 51.04 112.65 51.424C113.29 51.808 113.746 52.256 114.018 52.768C114.306 53.264 114.45 53.8 114.45 54.376C114.45 55.128 114.226 55.8 113.778 56.392C113.33 56.968 112.674 57.424 111.81 57.76C110.962 58.08 109.914 58.24 108.666 58.24ZM121.338 58.24C120.41 58.24 119.586 58.032 118.866 57.616C118.162 57.184 117.61 56.568 117.21 55.768C116.826 54.952 116.634 53.968 116.634 52.816V46.12C116.634 45.944 116.69 45.8 116.802 45.688C116.914 45.576 117.05 45.52 117.21 45.52H119.754C119.93 45.52 120.074 45.576 120.186 45.688C120.298 45.8 120.354 45.944 120.354 46.12V52.672C120.354 54.464 121.138 55.36 122.706 55.36C123.458 55.36 124.05 55.128 124.482 54.664C124.93 54.184 125.154 53.52 125.154 52.672V46.12C125.154 45.944 125.21 45.8 125.322 45.688C125.434 45.576 125.578 45.52 125.754 45.52H128.298C128.458 45.52 128.594 45.576 128.706 45.688C128.818 45.8 128.874 45.944 128.874 46.12V57.4C128.874 57.576 128.818 57.72 128.706 57.832C128.594 57.944 128.458 58 128.298 58H125.946C125.77 58 125.626 57.944 125.514 57.832C125.402 57.72 125.346 57.576 125.346 57.4V56.464C124.93 57.04 124.394 57.48 123.738 57.784C123.082 58.088 122.282 58.24 121.338 58.24ZM132.471 58C132.311 58 132.175 57.944 132.063 57.832C131.951 57.72 131.895 57.576 131.895 57.4V46.12C131.895 45.944 131.951 45.8 132.063 45.688C132.175 45.576 132.311 45.52 132.471 45.52H134.703C134.863 45.52 134.999 45.576 135.111 45.688C135.239 45.8 135.303 45.944 135.303 46.12V46.936C135.623 46.488 136.063 46.104 136.623 45.784C137.199 45.464 137.879 45.296 138.663 45.28C140.519 45.248 141.791 45.952 142.479 47.392C142.847 46.768 143.375 46.264 144.063 45.88C144.767 45.48 145.535 45.28 146.367 45.28C147.199 45.28 147.951 45.472 148.623 45.856C149.295 46.224 149.823 46.8 150.207 47.584C150.607 48.352 150.807 49.344 150.807 50.56V57.4C150.807 57.576 150.751 57.72 150.639 57.832C150.527 57.944 150.391 58 150.231 58H147.855C147.695 58 147.559 57.944 147.447 57.832C147.335 57.72 147.279 57.576 147.279 57.4V50.752C147.279 50.096 147.183 49.584 146.991 49.216C146.799 48.832 146.543 48.56 146.223 48.4C145.919 48.24 145.575 48.16 145.191 48.16C144.855 48.16 144.527 48.24 144.207 48.4C143.903 48.56 143.647 48.832 143.439 49.216C143.247 49.584 143.151 50.096 143.151 50.752V57.4C143.151 57.576 143.095 57.72 142.983 57.832C142.871 57.944 142.727 58 142.551 58H140.199C140.023 58 139.879 57.944 139.767 57.832C139.655 57.72 139.599 57.576 139.599 57.4V50.752C139.599 50.096 139.503 49.584 139.311 49.216C139.119 48.832 138.863 48.56 138.543 48.4C138.239 48.24 137.903 48.16 137.535 48.16C137.199 48.16 136.871 48.248 136.551 48.424C136.231 48.584 135.967 48.848 135.759 49.216C135.567 49.584 135.471 50.088 135.471 50.728V57.4C135.471 57.576 135.415 57.72 135.303 57.832C135.191 57.944 135.055 58 134.895 58H132.471ZM159.283 58.24C157.443 58.24 155.979 57.728 154.891 56.704C153.819 55.68 153.251 54.192 153.187 52.24C153.187 52.112 153.187 51.944 153.187 51.736C153.187 51.512 153.187 51.336 153.187 51.208C153.251 49.976 153.531 48.92 154.027 48.04C154.523 47.144 155.219 46.464 156.115 46C157.011 45.52 158.059 45.28 159.259 45.28C160.603 45.28 161.723 45.56 162.619 46.12C163.531 46.664 164.211 47.416 164.659 48.376C165.123 49.32 165.355 50.408 165.355 51.64V52.192C165.355 52.352 165.291 52.488 165.163 52.6C165.051 52.712 164.915 52.768 164.755 52.768H156.907C156.907 52.784 156.907 52.816 156.907 52.864C156.907 52.896 156.907 52.928 156.907 52.96C156.923 53.472 157.019 53.944 157.195 54.376C157.387 54.792 157.651 55.128 157.987 55.384C158.339 55.64 158.755 55.768 159.235 55.768C159.635 55.768 159.963 55.712 160.219 55.6C160.475 55.488 160.683 55.352 160.843 55.192C161.019 55.032 161.147 54.896 161.227 54.784C161.371 54.624 161.483 54.528 161.563 54.496C161.659 54.448 161.803 54.424 161.995 54.424H164.491C164.651 54.424 164.779 54.472 164.875 54.568C164.987 54.648 165.035 54.768 165.019 54.928C165.003 55.184 164.867 55.504 164.611 55.888C164.371 56.256 164.011 56.624 163.531 56.992C163.051 57.344 162.451 57.64 161.731 57.88C161.027 58.12 160.211 58.24 159.283 58.24ZM156.907 50.584H161.611V50.536C161.611 49.96 161.515 49.464 161.323 49.048C161.147 48.616 160.883 48.28 160.531 48.04C160.179 47.8 159.755 47.68 159.259 47.68C158.763 47.68 158.339 47.8 157.987 48.04C157.635 48.28 157.363 48.616 157.171 49.048C156.995 49.464 156.907 49.96 156.907 50.536V50.584ZM174.69 58.24C173.186 58.24 171.906 57.992 170.85 57.496C169.81 56.984 169.002 56.248 168.426 55.288C167.85 54.312 167.53 53.128 167.466 51.736C167.45 51.08 167.442 50.376 167.442 49.624C167.442 48.872 167.45 48.152 167.466 47.464C167.53 46.088 167.85 44.92 168.426 43.96C169.018 42.984 169.842 42.24 170.898 41.728C171.954 41.216 173.218 40.96 174.69 40.96C175.762 40.96 176.738 41.096 177.618 41.368C178.498 41.64 179.258 42.032 179.898 42.544C180.538 43.056 181.034 43.656 181.386 44.344C181.738 45.032 181.93 45.8 181.962 46.648C181.962 46.792 181.906 46.912 181.794 47.008C181.698 47.104 181.578 47.152 181.434 47.152H178.698C178.506 47.152 178.354 47.104 178.242 47.008C178.13 46.912 178.042 46.752 177.978 46.528C177.738 45.584 177.338 44.936 176.778 44.584C176.218 44.232 175.522 44.056 174.69 44.056C173.698 44.056 172.914 44.328 172.338 44.872C171.762 45.416 171.45 46.32 171.402 47.584C171.354 48.896 171.354 50.24 171.402 51.616C171.45 52.88 171.762 53.784 172.338 54.328C172.914 54.872 173.698 55.144 174.69 55.144C175.522 55.144 176.218 54.968 176.778 54.616C177.354 54.248 177.754 53.6 177.978 52.672C178.042 52.432 178.13 52.272 178.242 52.192C178.354 52.096 178.506 52.048 178.698 52.048H181.434C181.578 52.048 181.698 52.096 181.794 52.192C181.906 52.288 181.962 52.408 181.962 52.552C181.93 53.4 181.738 54.168 181.386 54.856C181.034 55.544 180.538 56.144 179.898 56.656C179.258 57.168 178.498 57.56 177.618 57.832C176.738 58.104 175.762 58.24 174.69 58.24ZM190.107 58.24C188.779 58.24 187.667 58.024 186.771 57.592C185.875 57.144 185.187 56.512 184.707 55.696C184.243 54.88 183.987 53.928 183.939 52.84C183.923 52.52 183.915 52.16 183.915 51.76C183.915 51.344 183.923 50.984 183.939 50.68C183.987 49.576 184.259 48.624 184.755 47.824C185.251 47.008 185.947 46.384 186.843 45.952C187.739 45.504 188.827 45.28 190.107 45.28C191.371 45.28 192.451 45.504 193.347 45.952C194.243 46.384 194.939 47.008 195.435 47.824C195.931 48.624 196.203 49.576 196.251 50.68C196.283 50.984 196.299 51.344 196.299 51.76C196.299 52.16 196.283 52.52 196.251 52.84C196.203 53.928 195.939 54.88 195.459 55.696C194.995 56.512 194.315 57.144 193.419 57.592C192.523 58.024 191.419 58.24 190.107 58.24ZM190.107 55.6C190.891 55.6 191.483 55.36 191.883 54.88C192.283 54.384 192.499 53.664 192.531 52.72C192.547 52.48 192.555 52.16 192.555 51.76C192.555 51.36 192.547 51.04 192.531 50.8C192.499 49.872 192.283 49.16 191.883 48.664C191.483 48.168 190.891 47.92 190.107 47.92C189.323 47.92 188.723 48.168 188.307 48.664C187.907 49.16 187.691 49.872 187.659 50.8C187.643 51.04 187.635 51.36 187.635 51.76C187.635 52.16 187.643 52.48 187.659 52.72C187.691 53.664 187.907 54.384 188.307 54.88C188.723 55.36 189.323 55.6 190.107 55.6ZM204.521 58.24C203.193 58.24 202.081 58.024 201.185 57.592C200.289 57.144 199.601 56.512 199.121 55.696C198.657 54.88 198.401 53.928 198.353 52.84C198.337 52.52 198.329 52.16 198.329 51.76C198.329 51.344 198.337 50.984 198.353 50.68C198.401 49.576 198.673 48.624 199.169 47.824C199.665 47.008 200.361 46.384 201.257 45.952C202.153 45.504 203.241 45.28 204.521 45.28C205.785 45.28 206.865 45.504 207.761 45.952C208.657 46.384 209.353 47.008 209.849 47.824C210.345 48.624 210.617 49.576 210.665 50.68C210.697 50.984 210.713 51.344 210.713 51.76C210.713 52.16 210.697 52.52 210.665 52.84C210.617 53.928 210.353 54.88 209.873 55.696C209.409 56.512 208.729 57.144 207.833 57.592C206.937 58.024 205.833 58.24 204.521 58.24ZM204.521 55.6C205.305 55.6 205.897 55.36 206.297 54.88C206.697 54.384 206.913 53.664 206.945 52.72C206.961 52.48 206.969 52.16 206.969 51.76C206.969 51.36 206.961 51.04 206.945 50.8C206.913 49.872 206.697 49.16 206.297 48.664C205.897 48.168 205.305 47.92 204.521 47.92C203.737 47.92 203.137 48.168 202.721 48.664C202.321 49.16 202.105 49.872 202.073 50.8C202.057 51.04 202.049 51.36 202.049 51.76C202.049 52.16 202.057 52.48 202.073 52.72C202.105 53.664 202.321 54.384 202.721 54.88C203.137 55.36 203.737 55.6 204.521 55.6ZM213.823 58C213.647 58 213.503 57.944 213.391 57.832C213.279 57.72 213.223 57.576 213.223 57.4V41.56C213.223 41.384 213.279 41.24 213.391 41.128C213.503 41.016 213.647 40.96 213.823 40.96H216.223C216.383 40.96 216.519 41.016 216.631 41.128C216.743 41.24 216.799 41.384 216.799 41.56V57.4C216.799 57.576 216.743 57.72 216.631 57.832C216.519 57.944 216.383 58 216.223 58H213.823Z" fill="#8C64E0"/>
<path d="M35.8109 46.8614C35.8094 45.6171 35.8078 44.3728 35.8188 43.1159C35.8818 43.1458 35.9358 43.1848 35.9823 43.2313C38.354 45.6019 40.7248 47.9733 43.0978 50.3426C43.1521 50.3968 43.2298 50.4276 43.2988 50.4836C43.3014 50.8556 43.3033 51.2133 43.3023 51.571C43.3008 52.1022 43.2973 52.6334 43.285 53.1595C43.2098 53.0901 43.1439 53.0261 43.0789 52.9612C42.6677 52.5505 42.2394 52.4836 41.7127 52.7424C41.6731 52.6961 41.6434 52.6539 41.6074 52.6179C39.7207 50.7303 37.8336 48.8431 35.9455 46.9569C35.9071 46.9185 35.856 46.893 35.8109 46.8614Z" fill="#7C5BDB"/>
<path d="M35.8111 55.6182C35.8096 54.8055 35.8081 53.9928 35.819 53.1676C35.8674 53.1829 35.9069 53.2074 35.9389 53.2394C38.1463 55.4457 40.3533 57.6525 42.5588 59.8607C42.6001 59.902 42.6237 59.9609 42.6496 60.0191C42.6229 60.0494 42.6029 60.0727 42.5814 60.0947C42.2782 60.4054 42.2028 60.7764 42.3527 61.1711C42.4952 61.5462 42.7787 61.7813 43.1937 61.8189C43.3923 61.8368 43.5924 61.839 43.7933 61.8588C43.8367 61.9201 43.8748 61.9748 43.9211 62.0212C45.2673 63.3687 46.6147 64.715 47.9596 66.0638C48.0104 66.1147 48.0388 66.1879 48.0777 66.2507C47.5425 66.2521 47.0073 66.2534 46.4561 66.2424C46.2329 66.0117 46.0301 65.789 45.8179 65.5757C45.3559 65.1112 44.8878 64.6527 44.4245 64.1895C43.9831 63.7482 43.5459 63.3027 43.1046 62.8614C42.6449 62.4019 42.1809 61.9466 41.7216 61.4867C41.2804 61.045 40.8446 60.5981 40.4031 60.1568C39.9399 59.6936 39.4711 59.236 39.0078 58.7728C38.5664 58.3315 38.1299 57.8852 37.6895 57.4428C37.2056 56.9569 36.7215 56.4712 36.2334 55.9896C36.1002 55.8581 35.9523 55.7416 35.8111 55.6182Z" fill="#624BD3"/>
<path d="M43.2968 50.4693C43.2299 50.4276 43.1522 50.3968 43.0978 50.3426C40.7249 47.9733 38.3541 45.6019 35.9824 43.2313C35.9359 43.1848 35.8819 43.1458 35.8212 43.1016C35.7823 42.085 35.7849 41.0731 36.1102 40.0898C36.181 40.159 36.2266 40.2349 36.2873 40.2957C38.2337 42.2445 40.1814 44.192 42.13 46.1387C42.172 46.1806 42.2268 46.2097 42.2778 46.2588C42.2704 46.6021 42.3452 46.8992 42.5857 47.1433C42.7848 47.3454 43.0327 47.4216 43.3026 47.4669C43.3025 47.6453 43.3027 47.8097 43.3023 47.974C43.3006 48.8058 43.2986 49.6375 43.2968 50.4693Z" fill="#8661DE"/>
<path d="M67.2508 54.2924C67.2524 55.301 67.2542 56.3096 67.2557 57.3183C67.256 57.5128 67.2553 57.7074 67.2427 57.9146C67.1664 57.8625 67.1034 57.7969 67.0382 57.7335C66.8381 57.5388 66.6345 57.3478 66.4375 57.1501C66.2295 56.9414 66.0307 56.7236 65.8221 56.5156C65.6245 56.3185 65.4173 56.1309 65.2181 55.9354C64.9791 55.7007 64.743 55.463 64.5079 55.2244C64.3976 55.1124 64.2942 54.9934 64.1847 54.8805C64.0677 54.7599 63.9481 54.6418 63.8281 54.5243C63.6286 54.329 63.4254 54.1376 63.2284 53.9399C63.0204 53.7312 62.8194 53.5156 62.6127 53.3056C62.3957 53.0853 62.1758 52.8677 61.9564 52.6496C61.8373 52.5312 61.7162 52.4148 61.597 52.2965C61.4748 52.1752 61.3578 52.0482 61.2312 51.9317C61.0871 51.7992 60.9348 51.6756 60.7841 51.5338C60.7834 50.3368 60.7848 49.1542 60.797 47.9718C60.8649 48.0123 60.9292 48.045 60.9778 48.0935C63.0069 50.1202 65.0344 52.1486 67.0641 54.1747C67.1149 54.2254 67.188 54.2536 67.2508 54.2924Z" fill="#B37DED"/>
<path d="M60.7859 51.5481C60.9346 51.6756 61.0869 51.7992 61.231 51.9317C61.3576 52.0482 61.4746 52.1752 61.5968 52.2965C61.716 52.4148 61.8371 52.5312 61.9563 52.6496C62.1756 52.8677 62.3955 53.0852 62.6125 53.3056C62.8193 53.5156 63.0203 53.7312 63.2282 53.9399C63.4252 54.1376 63.6284 54.329 63.8279 54.5243C63.9479 54.6418 64.0676 54.7599 64.1845 54.8805C64.294 54.9934 64.3974 55.1124 64.5077 55.2244C64.7428 55.463 64.9789 55.7007 65.2179 55.9353C65.4171 56.1309 65.6243 56.3185 65.8219 56.5156C66.0305 56.7236 66.2293 56.9414 66.4373 57.1501C66.6343 57.3478 66.838 57.5388 67.038 57.7335C67.1032 57.7969 67.1662 57.8625 67.2404 57.9289C67.2523 58.3618 67.2754 58.7941 67.2507 59.2238C67.215 59.8449 67.1219 60.4597 66.9018 61.0637C66.8393 61.0634 66.7772 61.066 66.7457 61.0362C66.5685 60.8685 66.3989 60.6929 66.2265 60.5201C66.0258 60.3191 65.8248 60.1184 65.6241 59.9173C65.4119 59.7048 65.1994 59.4925 64.988 59.2791C64.7986 59.088 64.6122 58.8939 64.4216 58.7041C64.2053 58.4887 63.9839 58.2784 63.7682 58.0625C63.5744 57.8686 63.3866 57.6687 63.1937 57.4738C62.965 57.2425 62.7338 57.0136 62.5035 56.7839C62.3201 56.6009 62.1362 56.4185 61.9528 56.2355C61.7261 56.0091 61.5032 55.7789 61.2721 55.5571C61.1158 55.407 60.9484 55.2685 60.7839 55.1105C60.7832 53.9135 60.7846 52.7308 60.7859 51.5481Z" fill="#A876E9"/>
<path d="M54.4292 34.811C55.0363 34.8094 55.6435 34.8078 56.2666 34.8188C56.3141 34.871 56.3423 34.9142 56.3779 34.9499C59.9566 38.5296 63.5357 42.1088 67.1158 45.6871C67.1542 45.7254 67.2054 45.7509 67.2506 45.7824C67.2521 46.3793 67.2536 46.9761 67.242 47.587C67.179 47.5681 67.1217 47.5425 67.0803 47.5011C62.8939 43.3171 58.7088 39.1319 54.5245 34.9458C54.4861 34.9074 54.4607 34.8562 54.4292 34.811Z" fill="#CC8CF5"/>
<path d="M35.8088 46.8758C35.8562 46.893 35.9073 46.9185 35.9457 46.9569C37.8338 48.8431 39.7209 50.7303 41.6076 52.6179C41.6436 52.6539 41.6733 52.6961 41.7074 52.7507C41.1874 53.1351 41.0961 53.828 41.5267 54.2954C41.8705 54.6686 42.2391 55.0191 42.5959 55.3804C42.8334 55.621 43.0695 55.8629 43.3052 56.1191C43.3018 56.6302 43.2993 57.1264 43.2858 57.6223C43.2137 57.5789 43.1448 57.5437 43.0927 57.4916C40.7206 55.1221 38.3502 52.7511 35.9784 50.3813C35.9291 50.3321 35.8671 50.2956 35.8111 50.2532C35.8096 49.1321 35.808 48.0111 35.8088 46.8758Z" fill="#7254D8"/>
<path d="M67.253 45.7681C67.2056 45.7509 67.1544 45.7254 67.116 45.6871C63.5359 42.1088 59.9567 38.5296 56.3781 34.9499C56.3424 34.9142 56.3143 34.871 56.281 34.8212C57.0098 34.8094 57.7403 34.8078 58.4867 34.8188C58.527 34.8637 58.5478 34.8996 58.5762 34.928C61.4154 37.7683 64.2551 40.6082 67.0965 43.4463C67.1364 43.4862 67.1989 43.5036 67.2508 43.5316C67.2523 44.2723 67.2538 45.0131 67.253 45.7681Z" fill="#D18FF6"/>
<path d="M67.2506 50.5308C67.2521 50.9529 67.2536 51.375 67.2427 51.8099C67.187 51.7874 67.1405 51.7555 67.1011 51.7164C66.7664 51.3835 66.4329 51.0492 66.099 50.7154C64.31 48.9264 62.5213 47.137 60.7302 45.3501C60.6765 45.2965 60.5972 45.2687 60.5214 45.2232C60.4642 45.165 60.417 45.1109 60.3663 45.0602C58.548 43.2414 56.7295 41.4228 54.9106 39.6045C54.8639 39.5578 54.8139 39.5144 54.7659 39.4577C54.7256 39.3841 54.6939 39.313 54.6426 39.2616C53.2136 37.8293 51.7824 36.3992 50.3528 34.9675C50.3073 34.9218 50.2746 34.8634 50.2358 34.811C50.658 34.8094 51.0801 34.8079 51.5181 34.8192C51.6429 34.9579 51.7482 35.0871 51.8615 35.2088C51.9513 35.3051 52.0514 35.392 52.1463 35.4836C52.2744 35.6073 52.4042 35.7294 52.5292 35.8561C52.7253 36.0548 52.9152 36.2596 53.1129 36.4566C53.3216 36.6647 53.5395 36.8635 53.7476 37.0721C53.9448 37.2698 54.1323 37.477 54.328 37.6762C54.5627 37.9152 54.8011 38.1506 55.0387 38.3869C55.1396 38.4873 55.2422 38.5859 55.3441 38.6852C55.5552 38.8909 55.7689 39.094 55.9769 39.3029C56.1738 39.5008 56.3629 39.7065 56.5588 39.9054C56.7868 40.1368 57.0183 40.3647 57.2486 40.5938C57.3531 40.6978 57.4578 40.8015 57.5632 40.9045C57.7741 41.1104 57.9882 41.3132 58.1961 41.522C58.3931 41.7198 58.5822 41.9255 58.7779 42.1246C59.0092 42.3599 59.2435 42.5922 59.4772 42.8251C59.578 42.9256 59.6802 43.0246 59.7822 43.1239C59.9933 43.3295 60.2074 43.5323 60.4154 43.7411C60.6124 43.9389 60.8013 44.1448 60.997 44.3439C61.2283 44.5792 61.4627 44.8113 61.6964 45.0442C61.7972 45.1447 61.8992 45.244 62.0012 45.3432C62.2124 45.5488 62.4266 45.7514 62.6346 45.9602C62.8316 46.158 63.0204 46.364 63.2161 46.5631C63.4474 46.7984 63.682 47.0304 63.9157 47.2634C64.0165 47.3638 64.1182 47.4633 64.2202 47.5626C64.4315 47.7681 64.6459 47.9705 64.8539 48.1793C65.0509 48.3771 65.2395 48.5832 65.4352 48.7824C65.6665 49.0176 65.9012 49.2496 66.1349 49.4825C66.2357 49.5829 66.338 49.6819 66.4391 49.7821C66.5797 49.9214 66.7162 50.0653 66.8613 50.1998C66.9861 50.3155 67.1205 50.4209 67.2506 50.5308Z" fill="#C085F1"/>
<path d="M54.4151 34.8086C54.4609 34.8562 54.4863 34.9074 54.5247 34.9458C58.7089 39.1319 62.8941 43.3171 67.0804 47.5011C67.1219 47.5425 67.1792 47.5681 67.2399 47.6013C67.2523 48.1265 67.2538 48.6514 67.2429 49.189C67.1798 49.1591 67.1258 49.12 67.0792 49.0735C63.6726 45.668 60.2666 42.2619 56.8605 38.8558C55.575 37.5703 54.2892 36.2853 53.0057 34.9979C52.9549 34.947 52.9265 34.8738 52.8877 34.811C53.3921 34.8094 53.8964 34.8079 54.4151 34.8086Z" fill="#C789F3"/>
<path d="M35.8088 50.2675C35.867 50.2956 35.929 50.332 35.9783 50.3813C38.3501 52.7511 40.7205 55.1221 43.0926 57.4916C43.1447 57.5436 43.2136 57.5789 43.288 57.6366C43.3022 58.3593 43.303 59.0674 43.2909 59.778C43.0477 59.7962 42.8433 59.8814 42.6555 60.0116C42.6236 59.9609 42.6 59.902 42.5587 59.8607C40.3532 57.6525 38.1462 55.4457 35.9388 53.2394C35.9068 53.2074 35.8673 53.1829 35.8211 53.1533C35.8095 52.195 35.808 51.2384 35.8088 50.2675Z" fill="#6A4FD6"/>
<path d="M52.8732 34.8086C52.9263 34.8738 52.9547 34.947 53.0055 34.9979C54.289 36.2853 55.5749 37.5703 56.8603 38.8558C60.2664 42.2619 63.6724 45.668 67.079 49.0735C67.1256 49.12 67.1797 49.1591 67.2404 49.2032C67.2521 49.6373 67.2536 50.0698 67.2529 50.5165C67.1205 50.4208 66.9861 50.3155 66.8613 50.1998C66.7162 50.0653 66.5798 49.9214 66.4391 49.7821C66.338 49.6819 66.2357 49.5829 66.1349 49.4824C65.9012 49.2496 65.6665 49.0176 65.4353 48.7824C65.2395 48.5832 65.0509 48.3771 64.8539 48.1793C64.6459 47.9705 64.4315 47.7681 64.2203 47.5626C64.1183 47.4633 64.0165 47.3638 63.9157 47.2634C63.682 47.0304 63.4474 46.7984 63.2162 46.5631C63.0204 46.364 62.8317 46.158 62.6346 45.9602C62.4267 45.7514 62.2124 45.5488 62.0012 45.3432C61.8993 45.244 61.7973 45.1447 61.6965 45.0442C61.4628 44.8113 61.2283 44.5792 60.9971 44.3439C60.8013 44.1448 60.6124 43.9389 60.4154 43.7411C60.2074 43.5323 59.9934 43.3295 59.7822 43.1239C59.6802 43.0246 59.578 42.9256 59.4772 42.8251C59.2436 42.5922 59.0092 42.3599 58.7779 42.1246C58.5822 41.9255 58.3931 41.7198 58.1961 41.522C57.9882 41.3132 57.7741 41.1104 57.5632 40.9045C57.4578 40.8015 57.3531 40.6978 57.2486 40.5938C57.0184 40.3647 56.7869 40.1368 56.5589 39.9054C56.3629 39.7065 56.1739 39.5008 55.9769 39.3029C55.769 39.094 55.5553 38.8909 55.3441 38.6852C55.2422 38.5859 55.1396 38.4872 55.0387 38.3869C54.8012 38.1506 54.5627 37.9152 54.328 37.6762C54.1324 37.477 53.9448 37.2698 53.7476 37.0721C53.5395 36.8635 53.3217 36.6647 53.113 36.4566C52.9153 36.2596 52.7253 36.0548 52.5292 35.8561C52.4042 35.7294 52.2744 35.6073 52.1463 35.4836C52.0514 35.392 51.9514 35.3051 51.8616 35.2088C51.7482 35.0871 51.6429 34.9579 51.5325 34.8215C51.9735 34.8094 52.4162 34.8079 52.8732 34.8086Z" fill="#C387F2"/>
<path d="M35.8088 55.6325C35.9521 55.7416 36.1001 55.8581 36.2333 55.9896C36.7214 56.4712 37.2055 56.9569 37.6893 57.4428C38.1298 57.8852 38.5663 58.3315 39.0077 58.7728C39.471 59.2359 39.9397 59.6936 40.403 60.1568C40.8444 60.5981 41.2803 61.045 41.7214 61.4867C42.1808 61.9466 42.6448 62.4018 43.1044 62.8614C43.5458 63.3027 43.983 63.7482 44.4244 64.1895C44.8877 64.6527 45.3557 65.1112 45.8178 65.5757C46.03 65.789 46.2328 66.0117 46.4416 66.2404C45.7849 66.2521 45.1264 66.2534 44.4519 66.2423C44.3262 66.1105 44.2203 65.9874 44.1061 65.8724C43.724 65.4877 43.3387 65.106 42.9549 64.7228C42.5933 64.3617 42.2318 64.0003 41.8706 63.6387C41.4875 63.2549 41.1049 62.8705 40.7218 62.4867C40.3716 62.1357 40.021 61.7851 39.6705 61.4344C39.28 61.0436 38.8896 60.6526 38.4986 60.2623C38.1442 59.9083 37.7886 59.5555 37.4342 59.2015C37.0505 58.8182 36.6698 58.4319 36.2835 58.0514C36.132 57.9022 35.9688 57.765 35.8109 57.6224C35.8095 56.9639 35.8081 56.3054 35.8088 55.6325Z" fill="#5D47D1"/>
<path d="M67.253 43.5173C67.1988 43.5036 67.1364 43.4862 67.0964 43.4463C64.255 40.6082 61.4154 37.7683 58.5762 34.928C58.5478 34.8996 58.527 34.8637 58.501 34.8212C59.2661 34.8211 60.0328 34.8313 60.8062 34.8641C60.851 34.9446 60.8807 35.011 60.9287 35.0591C62.9301 37.0633 64.9332 39.0658 66.9347 41.0698C66.974 41.1092 66.9965 41.1653 67.0268 41.2136C67.0393 41.2021 67.0518 41.1905 67.0643 41.1789C67.1058 41.1615 67.1474 41.144 67.1889 41.1266C67.3142 41.9158 67.233 42.7109 67.253 43.5173Z" fill="#D893F8"/>
<path d="M60.7859 55.1248C60.9484 55.2685 61.1158 55.407 61.2721 55.5571C61.5032 55.7789 61.7261 56.0091 61.9528 56.2355C62.1362 56.4185 62.3201 56.6009 62.5035 56.7839C62.7338 57.0136 62.965 57.2425 63.1937 57.4738C63.3865 57.6687 63.5744 57.8686 63.7682 58.0625C63.9839 58.2784 64.2053 58.4887 64.4216 58.7041C64.6122 58.8939 64.7986 59.088 64.988 59.2791C65.1994 59.4925 65.4119 59.7048 65.6241 59.9173C65.8248 60.1184 66.0258 60.3191 66.2264 60.5201C66.3989 60.6929 66.5685 60.8685 66.7457 61.0362C66.7771 61.066 66.8393 61.0634 66.8994 61.0757C66.7829 61.6406 66.5048 62.1396 66.2199 62.635C66.1305 62.7906 66.0314 62.9406 65.9184 63.1018C65.829 63.0754 65.7467 63.053 65.6892 63.0025C65.5782 62.9049 65.4831 62.7894 65.378 62.6849C64.9134 62.2231 64.4458 61.7642 63.9826 61.3011C63.5411 60.8598 63.1047 60.4135 62.6642 59.9712C62.1804 59.4853 61.6963 58.9996 61.2082 58.5179C61.075 58.3865 60.9271 58.2699 60.7839 58.1322C60.7832 57.1202 60.7846 56.1225 60.7859 55.1248Z" fill="#A071E7"/>
<path d="M35.8088 57.6367C35.9688 57.765 36.1321 57.9022 36.2835 58.0514C36.6698 58.432 37.0506 58.8182 37.4342 59.2015C37.7886 59.5555 38.1442 59.9083 38.4987 60.2623C38.8897 60.6526 39.28 61.0436 39.6706 61.4344C40.0211 61.7851 40.3716 62.1357 40.7219 62.4867C41.105 62.8705 41.4875 63.2549 41.8707 63.6387C42.2318 64.0003 42.5933 64.3617 42.955 64.7228C43.3387 65.106 43.724 65.4877 44.1062 65.8724C44.2203 65.9874 44.3262 66.1105 44.4376 66.2403C43.8484 66.2515 43.2576 66.2552 42.6668 66.2511C42.5348 66.2502 42.403 66.2221 42.259 66.1889C42.1298 66.0526 42.0133 65.9333 41.8954 65.8154C41.6793 65.5991 41.4617 65.3844 41.2461 65.1677C41.0561 64.9767 40.8695 64.7825 40.6787 64.5924C40.4622 64.3768 40.241 64.1658 40.0249 63.9497C39.8309 63.7556 39.6432 63.5553 39.449 63.3614C39.2327 63.1455 39.0104 62.9357 38.7944 62.7196C38.6003 62.5255 38.4135 62.3242 38.2192 62.1303C38.0066 61.9181 37.7861 61.7138 37.5743 61.5008C37.2982 61.2231 37.0282 60.9394 36.754 60.6599C36.5082 60.4094 36.2613 60.1599 36.0119 59.913C35.9704 59.8718 35.9137 59.8459 35.864 59.813C35.8446 59.6754 35.8101 59.5381 35.8086 59.4003C35.8026 58.8173 35.8065 58.2341 35.8088 57.6367Z" fill="#5744D0"/>
<path d="M60.5298 45.2289C60.5972 45.2687 60.6765 45.2965 60.7302 45.3501C62.5213 47.137 64.31 48.9264 66.099 50.7154C66.4329 51.0492 66.7663 51.3835 67.1011 51.7164C67.1404 51.7555 67.187 51.7874 67.2404 51.8242C67.2521 52.6384 67.2535 53.4511 67.2528 54.2781C67.1878 54.2536 67.1147 54.2254 67.0639 54.1747C65.0342 52.1486 63.0067 50.1202 60.9776 48.0935C60.929 48.045 60.8647 48.0122 60.7947 47.9575C60.7814 47.3141 60.7756 46.6853 60.7831 46.0566C60.7867 45.7499 60.7227 45.4716 60.5298 45.2289Z" fill="#BC82EF"/>
<path d="M42.2756 46.2448C42.2268 46.2097 42.1719 46.1806 42.1299 46.1386C40.1813 44.192 38.2336 42.2445 36.2873 40.2957C36.2266 40.2349 36.181 40.159 36.1201 40.0837C36.2444 39.5515 36.4701 39.0641 36.7258 38.5891C36.7614 38.5228 36.7982 38.4571 36.8444 38.3975C36.8988 38.4874 36.9261 38.588 36.99 38.6522C38.7044 40.3728 40.4224 42.0898 42.1409 43.8063C42.1793 43.8446 42.2304 43.8701 42.2778 43.9159C42.2785 44.7017 42.2771 45.4733 42.2756 46.2448Z" fill="#8E65E1"/>
<path d="M60.7859 58.1465C60.9271 58.2699 61.075 58.3865 61.2083 58.5179C61.6963 58.9996 62.1804 59.4853 62.6643 59.9712C63.1047 60.4135 63.5412 60.8598 63.9826 61.3011C64.4458 61.7642 64.9134 62.2231 65.378 62.6849C65.4832 62.7894 65.5782 62.9049 65.6892 63.0025C65.7467 63.053 65.829 63.0754 65.9117 63.1105C65.5219 63.7021 65.033 64.2114 64.4579 64.6504C64.366 64.5952 64.2801 64.5564 64.2177 64.4941C62.9419 63.2227 61.6692 61.9482 60.3941 60.6761C60.3418 60.624 60.2721 60.5893 60.2146 60.5362C60.4958 60.1312 60.6843 59.6967 60.7377 59.2181C60.7772 58.8635 60.7715 58.5039 60.7859 58.1465Z" fill="#986CE4"/>
<path d="M67.1909 41.1139C67.1472 41.144 67.1057 41.1615 67.0641 41.1789C67.0516 41.1905 67.0391 41.2021 67.0266 41.2136C66.9963 41.1653 66.9739 41.1092 66.9346 41.0698C64.9331 39.0658 62.9299 37.0633 60.9286 35.0591C60.8806 35.011 60.8509 34.9446 60.8127 34.8754C61.4117 34.9072 61.9809 35.0781 62.5374 35.2875C63.2436 35.5532 63.8923 35.9286 64.482 36.3986C65.2219 36.9885 65.8252 37.6984 66.2963 38.5204C66.7186 39.2573 66.9915 40.0483 67.159 40.878C67.1739 40.9517 67.1818 41.0267 67.1909 41.1139Z" fill="#DD97FA"/>
<path d="M58.0676 66.2507C57.3269 66.2521 56.5862 66.2535 55.8294 66.2426C55.771 66.1798 55.732 66.1258 55.6855 66.0793C54.3324 64.725 52.9784 63.3717 51.6259 62.0168C51.5769 61.9678 51.5417 61.9049 51.5144 61.8461C52.2797 61.8452 53.0307 61.8468 53.7833 61.8589C53.926 62.0286 54.0611 62.1936 54.2097 62.3455C54.4047 62.5449 54.6123 62.732 54.811 62.9279C55.0423 63.1557 55.27 63.3872 55.499 63.6174C55.6029 63.7218 55.7069 63.8261 55.8097 63.9315C56.0155 64.1424 56.218 64.3565 56.4267 64.5643C56.6244 64.7612 56.8302 64.95 57.0292 65.1456C57.2643 65.3768 57.4998 65.6078 57.7276 65.8461C57.8491 65.9732 57.9548 66.1154 58.0676 66.2507Z" fill="#7C5BDB"/>
<path d="M60.2107 60.5465C60.2722 60.5893 60.3419 60.624 60.3942 60.6761C61.6693 61.9482 62.9421 63.2227 64.2178 64.4941C64.2803 64.5564 64.3662 64.5952 64.448 64.6541C64.0457 65.0098 63.5877 65.2791 63.1072 65.5126C63.0533 65.5388 62.9984 65.5631 62.9225 65.5813C62.8477 65.5352 62.7885 65.502 62.7423 65.4558C61.5012 64.217 60.2612 62.977 59.0226 61.7356C58.9814 61.6943 58.9577 61.6355 58.9341 61.5787C59.0461 61.5186 59.1518 61.4682 59.2531 61.4099C59.6339 61.1909 59.9456 60.8943 60.2107 60.5465Z" fill="#9067E1"/>
<path d="M45.1177 34.811C45.8481 34.8095 46.5786 34.8079 47.325 34.8191C47.3714 34.8713 47.3982 34.9143 47.4329 34.9497C47.5656 35.0851 47.7009 35.2179 47.8349 35.3519C48.1966 35.7134 48.5583 36.075 48.9198 36.4367C49.2998 36.8168 49.6796 37.1972 50.0596 37.5774C50.4175 37.9355 50.7794 38.2897 51.1319 38.653C51.3047 38.8311 51.4601 39.026 51.6092 39.2161C50.8645 39.217 50.1339 39.2151 49.4019 39.2028C49.3585 39.1416 49.3204 39.087 49.2741 39.0406C47.9363 37.7013 46.5971 36.3634 45.2606 35.0229C45.2015 34.9636 45.1648 34.8821 45.1177 34.811Z" fill="#B37DED"/>
<path d="M41.416 35.0183C41.647 34.9681 41.8759 34.8927 42.1094 34.873C42.5672 34.8344 43.0276 34.8268 43.5022 34.8189C43.7066 35.0311 43.892 35.2346 44.0856 35.4299C44.4668 35.8142 44.8537 36.1929 45.2362 36.576C45.5897 36.9299 45.9389 37.288 46.2927 37.6414C46.7552 38.1033 47.2216 38.5612 47.6827 39.0243C47.7337 39.0755 47.7615 39.1497 47.7858 39.2161C47.0308 39.217 46.29 39.2151 45.5489 39.2022C45.5127 39.1373 45.4846 39.0758 45.4399 39.0309C44.17 37.7583 42.8987 36.4872 41.6271 35.2164C41.5588 35.1482 41.4865 35.0842 41.416 35.0183Z" fill="#A977EA"/>
<path d="M35.8652 59.8265C35.9136 59.8459 35.9703 59.8718 36.0118 59.913C36.2612 60.1599 36.5081 60.4094 36.7539 60.6599C37.0281 60.9394 37.2981 61.2232 37.5742 61.5008C37.786 61.7138 38.0065 61.9181 38.2191 62.1303C38.4134 62.3242 38.6002 62.5255 38.7943 62.7196C39.0103 62.9357 39.2326 63.1455 39.4489 63.3614C39.6431 63.5553 39.8308 63.7556 40.0248 63.9497C40.2409 64.1658 40.4621 64.3768 40.6786 64.5924C40.8694 64.7825 41.056 64.9767 41.246 65.1677C41.4616 65.3844 41.6792 65.5991 41.8953 65.8154C42.0132 65.9333 42.1297 66.0526 42.2484 66.1818C41.8171 66.1003 41.3754 66.0381 40.9532 65.9109C39.7833 65.5584 38.7716 64.9275 37.9192 64.0557C36.8752 62.988 36.2012 61.7191 35.928 60.245C35.9032 60.1108 35.8869 59.9751 35.8652 59.8265Z" fill="#5240CD"/>
<path d="M42.2758 43.9015C42.2306 43.8701 42.1794 43.8446 42.1411 43.8063C40.4226 42.0898 38.7046 40.3728 36.9902 38.6522C36.9263 38.588 36.8989 38.4874 36.854 38.392C37.0626 38.0846 37.2718 37.7891 37.4954 37.4987C37.5194 37.5158 37.5279 37.5289 37.5386 37.5397C39.08 39.0816 40.6214 40.6234 42.164 42.1641C42.1949 42.195 42.2392 42.2127 42.2788 42.2509C42.2788 42.8107 42.2773 43.3561 42.2758 43.9015Z" fill="#9369E3"/>
<path d="M41.4034 35.0197C41.4865 35.0842 41.5589 35.1482 41.6271 35.2164C42.8987 36.4872 44.1701 37.7583 45.4399 39.0309C45.4847 39.0758 45.5128 39.1373 45.5352 39.2049C44.973 39.2147 44.4498 39.3286 43.9414 39.5515C43.8221 39.4399 43.7116 39.3339 43.6027 39.2262C43.073 38.702 42.5417 38.1793 42.0149 37.6522C41.3942 37.0312 40.7815 36.4021 40.1552 35.7868C40.0497 35.6831 40.0164 35.6035 40.0904 35.4807C40.5048 35.2737 40.9394 35.1237 41.4034 35.0197Z" fill="#A372E7"/>
<path d="M51.5 66.2507C50.8929 66.2521 50.2857 66.2535 49.6626 66.2423C49.5297 66.0976 49.4162 65.9623 49.2947 65.8345C49.183 65.7169 49.0607 65.6095 48.9466 65.4941C48.7394 65.2846 48.5374 65.0699 48.3285 64.862C48.1307 64.6652 47.9237 64.4775 47.7266 64.2798C47.5223 64.0749 47.3291 63.8588 47.1238 63.6549C46.8393 63.3722 46.5465 63.0979 46.2603 62.817C46.0176 62.5788 45.7764 62.339 45.5404 62.0941C45.4712 62.0223 45.4223 61.9308 45.3784 61.846C45.9896 61.8453 46.5864 61.8468 47.1848 61.8588C47.2245 61.9164 47.2588 61.9675 47.3016 62.0101C47.6925 62.3991 48.0865 62.7851 48.4764 63.1751C48.9386 63.6375 49.3957 64.1048 49.8583 64.5667C50.3785 65.0862 50.9029 65.6015 51.4235 66.1207C51.4579 66.155 51.4749 66.207 51.5 66.2507Z" fill="#6A4FD6"/>
<path d="M51.5144 66.2528C51.475 66.207 51.4581 66.155 51.4236 66.1207C50.9031 65.6015 50.3786 65.0862 49.8584 64.5667C49.3958 64.1048 48.9387 63.6375 48.4766 63.1752C48.0867 62.7851 47.6927 62.3991 47.3017 62.0101C47.259 61.9675 47.2247 61.9164 47.1992 61.8565C47.7678 61.8453 48.3235 61.8468 48.8808 61.8588C49.0119 62.0127 49.1356 62.162 49.2721 62.2985C49.8934 62.9195 50.5194 63.536 51.1418 64.1561C51.7858 64.7977 52.4284 65.4407 53.0689 66.0858C53.1124 66.1295 53.1336 66.1953 53.1651 66.2508C52.6196 66.2521 52.0742 66.2535 51.5144 66.2528Z" fill="#7053D7"/>
<path d="M58.9257 61.5848C58.9576 61.6355 58.9814 61.6943 59.0226 61.7356C60.2611 62.977 61.5012 64.217 62.7423 65.4558C62.7885 65.502 62.8477 65.5352 62.9114 65.5791C62.6231 65.7043 62.3262 65.8301 62.0246 65.9432C61.8924 65.9927 61.7505 66.0163 61.5957 66.0422C61.5143 65.9747 61.4475 65.9195 61.3864 65.8585C60.0946 64.5677 58.8032 63.2765 57.513 61.984C57.475 61.9459 57.4508 61.8939 57.4341 61.8459C57.955 61.8394 58.4531 61.7847 58.9257 61.5848Z" fill="#8B64E0"/>
<path d="M47.8 39.2133C47.7615 39.1497 47.7337 39.0755 47.6827 39.0243C47.2216 38.5612 46.7552 38.1033 46.2927 37.6414C45.9388 37.288 45.5896 36.9299 45.2362 36.576C44.8537 36.1929 44.4668 35.8142 44.0856 35.4299C43.8919 35.2346 43.7066 35.0311 43.5159 34.8212C44.0391 34.8094 44.5641 34.8079 45.1033 34.8087C45.1647 34.8821 45.2014 34.9636 45.2605 35.0229C46.597 36.3634 47.9362 37.7013 49.274 39.0406C49.3203 39.0869 49.3584 39.1416 49.3876 39.2056C48.8499 39.217 48.325 39.2151 47.8 39.2133Z" fill="#AF7AEB"/>
<path d="M50.2217 34.8086C50.2747 34.8634 50.3075 34.9218 50.353 34.9674C51.7826 36.3992 53.2138 37.8293 54.6427 39.2616C54.6941 39.313 54.7258 39.3841 54.7558 39.4539C54.5833 39.3152 54.3883 39.242 54.1752 39.2343C53.7873 39.2202 53.399 39.2195 53.0093 39.2028C52.8366 39.0132 52.6674 38.8322 52.4938 38.6555C52.281 38.4389 52.0652 38.2253 51.8493 38.0118C51.723 37.8868 51.5938 37.7647 51.4665 37.6408C51.3576 37.5347 51.2476 37.4295 51.1413 37.3209C50.9355 37.1107 50.7349 36.8954 50.5266 36.6878C50.3292 36.4911 50.1227 36.3037 49.9239 36.1084C49.6853 35.8742 49.4507 35.6358 49.2144 35.3993C49.1211 35.306 49.023 35.217 48.9358 35.1184C48.8496 35.021 48.7744 34.9138 48.6943 34.811C49.1987 34.8094 49.7031 34.8079 50.2217 34.8086Z" fill="#BC82EF"/>
<path d="M45.3641 61.8484C45.4223 61.9308 45.4712 62.0223 45.5404 62.0941C45.7763 62.339 46.0175 62.5788 46.2602 62.817C46.5465 63.0979 46.8392 63.3722 47.1237 63.6549C47.329 63.8588 47.5223 64.0749 47.7266 64.2798C47.9236 64.4775 48.1307 64.6652 48.3285 64.862C48.5373 65.0699 48.7394 65.2846 48.9466 65.4941C49.0606 65.6095 49.1829 65.7169 49.2947 65.8345C49.4161 65.9623 49.5296 66.0976 49.6483 66.2402C49.1353 66.2521 48.6207 66.2535 48.0918 66.2528C48.0386 66.1879 48.0101 66.1147 47.9594 66.0638C46.6144 64.715 45.2671 63.3687 43.9209 62.0212C43.8746 61.9748 43.8365 61.9201 43.8074 61.8565C44.3348 61.8453 44.8494 61.8468 45.3641 61.8484Z" fill="#664DD4"/>
<path d="M42.277 42.2366C42.239 42.2127 42.1948 42.195 42.1638 42.1641C40.6212 40.6234 39.0798 39.0816 37.5385 37.5397C37.5277 37.5289 37.5192 37.5158 37.5049 37.4944C37.5895 37.3719 37.6711 37.2513 37.7703 37.1474C37.9132 36.9978 38.0689 36.8603 38.2313 36.7266C38.281 36.783 38.3141 36.835 38.3567 36.8775C39.7043 38.2267 41.0527 39.575 42.4017 40.9228C42.4446 40.9656 42.4955 41.0006 42.5416 41.051C42.3949 41.4411 42.2811 41.8265 42.277 42.2366Z" fill="#986CE4"/>
<path d="M57.4199 61.8484C57.4506 61.8939 57.4748 61.9459 57.5129 61.984C58.8031 63.2765 60.0945 64.5677 61.3863 65.8585C61.4473 65.9195 61.5141 65.9747 61.5829 66.043C61.1732 66.1201 60.7589 66.1869 60.3311 66.2407C60.2614 66.1652 60.2078 66.1 60.1485 66.0406C58.7973 64.6884 57.4453 63.337 56.0947 61.9842C56.0566 61.946 56.0323 61.894 56.0159 61.8459C56.4934 61.8451 56.9567 61.8467 57.4199 61.8484Z" fill="#8661DE"/>
<path d="M53.1794 66.2529C53.1335 66.1953 53.1123 66.1295 53.0689 66.0858C52.4284 65.4407 51.7858 64.7977 51.1418 64.1561C50.5194 63.536 49.8934 62.9195 49.2721 62.2985C49.1355 62.162 49.0119 62.0127 48.895 61.8564C49.371 61.8451 49.8343 61.8467 50.2978 61.8594C50.3158 61.9061 50.326 61.9489 50.3523 61.976C50.5658 62.1957 50.7813 62.4133 50.9979 62.6299C51.3809 63.0128 51.7658 63.3938 52.1485 63.777C52.502 64.131 52.8526 64.4879 53.2065 64.8416C53.5895 65.2244 53.976 65.6036 54.3582 65.9872C54.4395 66.0689 54.5087 66.1626 54.5834 66.2508C54.1202 66.2522 53.6569 66.2536 53.1794 66.2529Z" fill="#7254D8"/>
<path d="M40.079 35.4824C40.0162 35.6035 40.0496 35.6831 40.1551 35.7868C40.7814 36.4021 41.3941 37.0312 42.0148 37.6522C42.5416 38.1793 43.0729 38.702 43.6026 39.2262C43.7115 39.3339 43.822 39.4399 43.9346 39.5598C43.894 39.5992 43.8479 39.622 43.8076 39.6525C43.5655 39.8357 43.3247 40.0208 43.0788 40.1959C43.0321 40.1416 42.9913 40.0955 42.9479 40.0521C41.6957 38.7995 40.4423 37.5481 39.1937 36.2919C39.1327 36.2305 39.1131 36.1279 39.0742 36.0444C39.4054 35.8576 39.7365 35.6708 40.079 35.4824Z" fill="#A071E7"/>
<path d="M39.0637 36.0451C39.1131 36.1279 39.1327 36.2305 39.1938 36.2919C40.4424 37.5481 41.6957 38.7995 42.9479 40.0521C42.9913 40.0955 43.0322 40.1416 43.0746 40.2054C42.8975 40.4959 42.7201 40.7676 42.5426 41.0392C42.4955 41.0006 42.4446 40.9656 42.4017 40.9228C41.0527 39.575 39.7043 38.2267 38.3566 36.8775C38.3141 36.835 38.281 36.783 38.2419 36.7247C38.5113 36.4912 38.7823 36.2685 39.0637 36.0451Z" fill="#9B6EE5"/>
<path d="M48.6799 34.8087C48.7742 34.9138 48.8494 35.021 48.9356 35.1184C49.0228 35.217 49.1209 35.306 49.2142 35.3993C49.4505 35.6358 49.6851 35.8742 49.9237 36.1084C50.1225 36.3037 50.3291 36.4911 50.5264 36.6878C50.7348 36.8954 50.9353 37.1107 51.1411 37.3209C51.2475 37.4295 51.3574 37.5347 51.4663 37.6408C51.5937 37.7647 51.7229 37.8868 51.8492 38.0118C52.065 38.2253 52.2809 38.4389 52.4937 38.6555C52.6673 38.8322 52.8364 39.0132 52.9949 39.2056C52.5293 39.217 52.0763 39.2152 51.6233 39.2133C51.46 39.026 51.3045 38.8311 51.1317 38.653C50.7792 38.2896 50.4173 37.9355 50.0594 37.5774C49.6794 37.1972 49.2997 36.8168 48.9197 36.4367C48.5582 36.075 48.1965 35.7134 47.8348 35.3519C47.7007 35.2179 47.5654 35.085 47.4327 34.9496C47.3981 34.9143 47.3712 34.8713 47.3391 34.8214C47.7802 34.8094 48.2229 34.8079 48.6799 34.8087Z" fill="#B880EE"/>
<path d="M54.5976 66.2529C54.5086 66.1626 54.4394 66.0689 54.3581 65.9872C53.9759 65.6036 53.5894 65.2244 53.2064 64.8416C52.8525 64.4879 52.5019 64.131 52.1484 63.777C51.7657 63.3938 51.3808 63.0128 50.9978 62.6299C50.7812 62.4133 50.5657 62.1957 50.3522 61.976C50.3259 61.9489 50.3157 61.9061 50.312 61.8571C50.7174 61.8452 51.1087 61.8469 51.5 61.8485C51.5416 61.9049 51.5768 61.9678 51.6257 62.0168C52.9783 63.3717 54.3323 64.725 55.6853 66.0793C55.7318 66.1258 55.7708 66.1798 55.815 66.2405C55.4151 66.2521 55.0135 66.2535 54.5976 66.2529Z" fill="#7757DA"/>
<path d="M56.0016 61.8484C56.0324 61.894 56.0566 61.946 56.0948 61.9842C57.4454 63.337 58.7974 64.6884 60.1485 66.0406C60.2079 66.1 60.2614 66.1652 60.318 66.2386C59.9168 66.2513 59.5152 66.2531 59.099 66.242C59.0442 66.1719 59.0114 66.1075 58.9628 66.0588C57.6243 64.7175 56.2837 63.3783 54.9457 62.0364C54.8952 61.9857 54.868 61.9116 54.8442 61.8459C55.2396 61.8451 55.6206 61.8467 56.0016 61.8484Z" fill="#835FDD"/>
<path d="M54.8301 61.8484C54.8682 61.9116 54.8953 61.9857 54.9459 62.0364C56.2838 63.3783 57.6244 64.7175 58.963 66.0588C59.0116 66.1075 59.0444 66.1719 59.0848 66.2398C58.7555 66.2521 58.4259 66.2536 58.0819 66.2529C57.9548 66.1154 57.8491 65.9732 57.7276 65.8461C57.4998 65.6078 57.2644 65.3768 57.0292 65.1456C56.8302 64.95 56.6244 64.7612 56.4267 64.5643C56.218 64.3565 56.0155 64.1424 55.8097 63.9316C55.7069 63.8261 55.6029 63.7218 55.499 63.6174C55.27 63.3872 55.0423 63.1557 54.8111 62.9279C54.6123 62.732 54.4048 62.5449 54.2097 62.3455C54.0611 62.1936 53.926 62.0286 53.7976 61.8565C54.1503 61.8451 54.4902 61.8468 54.8301 61.8484Z" fill="#805DDD"/>
<path d="M43.3038 59.7755C43.3031 59.0674 43.3023 58.3593 43.2993 57.6369C43.2994 57.1264 43.3018 56.6302 43.3143 56.1235C43.4089 56.1954 43.494 56.2773 43.5776 56.3605C44.0167 56.7976 44.6356 56.8142 45.0715 56.3799C46.4538 55.0025 47.832 53.6208 49.2063 52.2353C49.4996 51.9396 49.5362 51.5677 49.4012 51.193C49.2775 50.8494 49.0138 50.6336 48.6523 50.5586C48.2496 50.475 47.9218 50.6249 47.6402 50.9059C47.1678 51.3773 46.6936 51.8469 46.2082 52.318C46.1759 52.3207 46.1542 52.319 46.1352 52.3254C45.2153 52.633 44.2957 52.9413 43.368 53.246C43.3383 53.2166 43.3166 53.1906 43.2949 53.1646C43.2975 52.6334 43.301 52.1022 43.3025 51.571C43.3035 51.2133 43.3016 50.8556 43.2989 50.4836C43.2987 49.6375 43.3007 48.8057 43.3024 47.974C43.3028 47.8097 43.3026 47.6453 43.315 47.464C43.6374 47.4261 43.8988 47.307 44.1016 47.0672C44.2954 46.8378 44.3415 46.564 44.3415 46.2763C44.3418 44.9764 44.3416 43.6765 44.3416 42.3766C44.3416 41.7097 44.7671 41.281 45.4309 41.2809C47.7533 41.2806 50.0756 41.2807 52.398 41.2807C52.4475 41.2807 52.497 41.2807 52.5537 41.2807C52.5537 41.3545 52.5537 41.4104 52.5537 41.4664C52.5537 43.0745 52.5492 44.6827 52.5593 46.2908C52.5606 46.4939 52.601 46.7143 52.6881 46.8955C52.8771 47.2883 53.229 47.4471 53.6559 47.4472C55.2846 47.4478 56.9133 47.4474 58.5421 47.4474C58.5973 47.4474 58.6525 47.4474 58.7204 47.4474C58.7204 47.9525 58.7204 48.4443 58.7204 48.9361C58.7203 52.1935 58.7225 55.451 58.7144 58.7084C58.714 58.8942 58.6625 59.0972 58.5768 59.262C58.3815 59.6378 58.0402 59.7821 57.623 59.782C52.9012 59.7801 48.1794 59.7807 43.4577 59.7804C43.4064 59.7804 43.3551 59.7772 43.3038 59.7755Z" fill="#F4F0FC"/>
<path d="M43.285 53.1595C43.3164 53.1906 43.3381 53.2166 43.3726 53.2556C43.7004 53.5816 44.0155 53.8946 44.3128 54.19C44.9542 53.5602 45.587 52.9387 46.2199 52.3172C46.6934 51.8469 47.1676 51.3773 47.64 50.9059C47.9216 50.6249 48.2494 50.475 48.6521 50.5586C49.0136 50.6336 49.2773 50.8494 49.401 51.193C49.536 51.5677 49.4994 51.9396 49.2061 52.2353C47.8318 53.6208 46.4536 55.0025 45.0713 56.3799C44.6354 56.8142 44.0165 56.7976 43.5774 56.3605C43.4938 56.2773 43.4087 56.1954 43.3152 56.1086C43.0694 55.8629 42.8332 55.621 42.5957 55.3804C42.2389 55.0191 41.8703 54.6686 41.5265 54.2954C41.0959 53.828 41.1872 53.1351 41.7141 52.7577C42.2394 52.4836 42.6677 52.5505 43.0789 52.9612C43.1439 53.0261 43.2098 53.0901 43.285 53.1595Z" fill="#1F1E1F"/>
<path d="M43.2909 59.778C43.355 59.7772 43.4063 59.7804 43.4576 59.7804C48.1793 59.7807 52.9011 59.7801 57.6229 59.782C58.0401 59.7822 58.3814 59.6378 58.5767 59.262C58.6624 59.0972 58.7139 58.8942 58.7143 58.7084C58.7225 55.451 58.7203 52.1935 58.7203 48.9361C58.7203 48.4443 58.7203 47.9525 58.7203 47.4474C58.6524 47.4474 58.5972 47.4474 58.542 47.4474C56.9133 47.4474 55.2845 47.4478 53.6558 47.4472C53.2289 47.4471 52.877 47.2884 52.6881 46.8955C52.6009 46.7143 52.5605 46.4939 52.5592 46.2909C52.5491 44.6827 52.5536 43.0745 52.5536 41.4664C52.5536 41.4104 52.5536 41.3545 52.5536 41.2807C52.4969 41.2807 52.4474 41.2807 52.3979 41.2807C50.0755 41.2808 47.7532 41.2806 45.4308 41.2809C44.767 41.281 44.3415 41.7097 44.3415 42.3766C44.3415 43.6765 44.3417 44.9764 44.3414 46.2763C44.3414 46.564 44.2953 46.8378 44.1015 47.0672C43.8988 47.307 43.6373 47.4261 43.315 47.4498C43.0327 47.4215 42.7848 47.3454 42.5857 47.1432C42.3452 46.8992 42.2704 46.6021 42.2778 46.2588C42.2771 45.4733 42.2785 44.7017 42.2778 43.9159C42.2772 43.3561 42.2787 42.8107 42.2787 42.251C42.2812 41.8265 42.395 41.4411 42.5417 41.051C42.7202 40.7676 42.8976 40.4959 43.0793 40.2148C43.3248 40.0208 43.5656 39.8357 43.8078 39.6525C43.848 39.622 43.8941 39.5992 43.9442 39.5646C44.4498 39.3286 44.973 39.2147 45.5354 39.216C46.29 39.2151 47.0308 39.217 47.7858 39.2161C48.325 39.2151 48.85 39.217 49.3892 39.216C50.1339 39.2151 50.8644 39.217 51.6092 39.2161C52.0764 39.2152 52.5294 39.217 52.9967 39.2161C53.399 39.2195 53.7873 39.2203 54.1751 39.2343C54.3883 39.242 54.5833 39.3152 54.7553 39.4656C54.814 39.5144 54.864 39.5578 54.9108 39.6045C56.7296 41.4228 58.5481 43.2414 60.3664 45.0602C60.4171 45.1109 60.4643 45.165 60.5215 45.2232C60.7228 45.4716 60.7868 45.75 60.7832 46.0566C60.7757 46.6853 60.7815 47.3141 60.784 47.9572C60.7847 49.1542 60.7833 50.3368 60.784 51.5338C60.7847 52.7308 60.7833 53.9135 60.784 55.1105C60.7847 56.1225 60.7833 57.1202 60.784 58.1322C60.7716 58.5039 60.7773 58.8635 60.7378 59.2181C60.6844 59.6967 60.4959 60.1312 60.2147 60.5362C59.9455 60.8943 59.6339 61.1909 59.2531 61.4099C59.1518 61.4682 59.0461 61.5186 58.934 61.5787C58.4531 61.7847 57.955 61.8394 57.4341 61.8459C56.9568 61.8467 56.4935 61.8451 56.016 61.8459C55.6207 61.8467 55.2396 61.8451 54.8443 61.8459C54.4901 61.8468 54.1502 61.8451 53.796 61.8459C53.0307 61.8468 52.2797 61.8452 51.5144 61.8461C51.1088 61.8469 50.7175 61.8452 50.3119 61.8459C49.8343 61.8467 49.371 61.8451 48.8935 61.8459C48.3235 61.8468 47.7677 61.8453 47.1977 61.8461C46.5865 61.8468 45.9897 61.8453 45.3785 61.8461C44.8496 61.8468 44.335 61.8453 43.806 61.8461C43.5923 61.839 43.3923 61.8368 43.1937 61.8189C42.7786 61.7813 42.4952 61.5462 42.3527 61.1711C42.2028 60.7764 42.2782 60.4054 42.5814 60.0947C42.6028 60.0727 42.6228 60.0494 42.6495 60.0191C42.8433 59.8814 43.0478 59.7962 43.2909 59.778ZM57.7567 45.3877C58.0654 45.3877 58.3741 45.3877 58.6667 45.3877C57.3121 44.0332 55.9627 42.6838 54.6182 41.3392C54.6182 41.6364 54.6182 41.9522 54.6146 42.2967C54.6146 43.3256 54.6146 44.3546 54.6146 45.3815C55.6663 45.3815 56.6973 45.3815 57.7567 45.3877Z" fill="#1F1E1F"/>
<path d="M46.208 52.318C45.5871 52.9387 44.9542 53.5602 44.3128 54.19C44.0155 53.8946 43.7005 53.5816 43.3806 53.2591C44.2955 52.9413 45.2152 52.633 46.1351 52.3254C46.154 52.319 46.1757 52.3207 46.208 52.318Z" fill="#F9F8FA"/>
<path d="M57.7283 45.3815C56.6972 45.3815 55.6662 45.3815 54.6145 45.3815C54.6145 44.3546 54.6145 43.3256 54.6267 42.2834C54.6712 42.2941 54.7073 42.3145 54.7355 42.3427C55.7072 43.3132 56.6784 44.2841 57.6482 45.2564C57.6824 45.2906 57.7019 45.3395 57.7283 45.3815Z" fill="#FEFEFF"/>
<path d="M57.7425 45.3846C57.702 45.3395 57.6825 45.2906 57.6483 45.2564C56.6785 44.2841 55.7073 43.3132 54.7356 42.3427C54.7073 42.3145 54.6713 42.2941 54.6285 42.2691C54.6182 41.9522 54.6182 41.6364 54.6182 41.3392C55.9627 42.6838 57.3121 44.0332 58.6667 45.3877C58.374 45.3877 58.0653 45.3877 57.7425 45.3846Z" fill="#E4E4E4"/>
</g>
<defs>
<clipPath id="clip0_16_15">
<rect width="100" height="250" fill="white" transform="translate(0 100) rotate(-90)"/>
</clipPath>
</defs>
</svg>
